grf
version=1
nRows=11
nColumns=37
inDegrees=no
endheader
time	ground_force_1_vx	ground_force_1_vy	ground_force_1_vz	ground_force_1_px	ground_force_1_py	ground_force_1_pz	ground_moment_1_mx	ground_moment_1_my	ground_moment_1_mz	ground_force_2_vx	ground_force_2_vy	ground_force_2_vz	ground_force_2_px	ground_force_2_py	ground_force_2_pz	ground_moment_2_mx	ground_moment_2_my	ground_moment_2_mz	ground_force_3_vx	ground_force_3_vy	ground_force_3_vz	ground_force_3_px	ground_force_3_py	ground_force_3_pz	ground_moment_3_mx	ground_moment_3_my	ground_moment_3_mz	ground_force_4_vx	ground_force_4_vy	ground_force_4_vz	ground_force_4_px	ground_force_4_py	ground_force_4_pz	ground_moment_4_mx	ground_moment_4_my	ground_moment_4_mz
      2.08000000	      0.00000000	     -0.00000000	      0.00000000	      0.00000000	      0.00000000	      0.00000000	      0.00000000	      0.00000000	      0.00000000	      8.07241154	     39.08254242	   -389.29937744	   -304.20968847	  -1092.79864951	      0.00000000	      0.00000000	      0.00000000	   5619.21033031	     -2.55179063	    -34.53485467	   -374.55346680	   -298.14395692	   -746.58787205	      0.00000000	      0.00000000	     -0.00000000	  -7881.94666787	      0.00000000	     -0.00000000	      0.00000000	      0.00000000	      0.00000000	      0.00000000	      0.00000000	      0.00000000	      0.00000000
      2.09000000	      0.00000000	     -0.00000000	      0.00000000	      0.00000000	      0.00000000	      0.00000000	      0.00000000	      0.00000000	      0.00000000	      8.38578796	     39.41722870	   -391.24877930	   -303.54039924	  -1092.82221765	      0.00000000	      0.00000000	      0.00000000	   5668.93038185	     -2.41697990	    -34.02554300	   -372.19561768	   -297.80183128	   -747.54036201	      0.00000000	     -0.00000000	     -0.00000000	  -8108.34512611	      0.00000000	     -0.00000000	      0.00000000	      0.00000000	      0.00000000	      0.00000000	      0.00000000	      0.00000000	      0.00000000
      2.10000000	      0.00000000	     -0.00000000	      0.00000000	      0.00000000	      0.00000000	      0.00000000	      0.00000000	      0.00000000	      0.00000000	      8.18265915	     40.22249985	   -393.44244385	   -303.27835094	  -1094.09852205	      0.00000000	      0.00000000	      0.00000000	   5720.06442003	     -3.01817501	    -34.09416935	   -370.51940918	   -296.26785871	   -748.49671976	      0.00000000	      0.00000000	     -0.00000000	  -8334.06891946	      0.00000000	     -0.00000000	      0.00000000	      0.00000000	      0.00000000	      0.00000000	      0.00000000	      0.00000000	      0.00000000
      2.11000000	      0.00000000	     -0.00000000	      0.00000000	      0.00000000	      0.00000000	      0.00000000	      0.00000000	      0.00000000	      0.00000000	      8.45731354	     40.08363342	   -392.63684082	   -303.28751950	  -1093.46870664	      0.00000000	      0.00000000	      0.00000000	   5856.22562205	     -4.39243137	    -33.97991142	   -372.88415527	   -296.26541392	   -746.32846035	      0.00000000	     -0.00000000	     -0.00000000	  -8483.00155382	      0.00000000	     -0.00000000	      0.00000000	      0.00000000	      0.00000000	      0.00000000	      0.00000000	      0.00000000	      0.00000000
      2.12000000	      0.00000000	     -0.00000000	      0.00000000	      0.00000000	      0.00000000	      0.00000000	      0.00000000	      0.00000000	      0.00000000	      7.78255987	     40.75804520	   -391.84478760	   -302.30946988	  -1092.83998498	      0.00000000	      0.00000000	      0.00000000	   5966.45762421	     -4.94638449	    -33.36727862	   -372.54479980	   -295.63960719	   -745.65831801	      0.00000000	      0.00000000	     -0.00000000	  -8823.30119261	      0.00000000	     -0.00000000	      0.00000000	      0.00000000	      0.00000000	      0.00000000	      0.00000000	      0.00000000	      0.00000000
      2.13000000	      0.00000000	     -0.00000000	      0.00000000	      0.00000000	      0.00000000	      0.00000000	      0.00000000	      0.00000000	      0.00000000	      7.57817745	     40.77951431	   -388.99969482	   -301.83783166	  -1092.68322039	      0.00000000	      0.00000000	      0.00000000	   6210.66080846	     -4.85779481	    -33.32197528	   -372.88015747	   -295.58653773	   -745.82496077	      0.00000000	      0.00000000	     -0.00000000	  -9337.04084516	      0.00000000	     -0.00000000	      0.00000000	      0.00000000	      0.00000000	      0.00000000	      0.00000000	      0.00000000	      0.00000000
      2.14000000	      0.00000000	     -0.00000000	      0.00000000	      0.00000000	      0.00000000	      0.00000000	      0.00000000	      0.00000000	      0.00000000	      7.06348610	     40.29763031	   -388.58111572	   -300.61817450	  -1094.40617289	      0.00000000	     -0.00000000	      0.00000000	   6187.49022267	     -4.49911698	    -33.67559012	   -372.81051636	   -295.46437076	   -746.42060524	      0.00000000	      0.00000000	     -0.00000000	  -9575.89856147	      0.00000000	     -0.00000000	      0.00000000	      0.00000000	      0.00000000	      0.00000000	      0.00000000	      0.00000000	      0.00000000
      2.15000000	      0.00000000	     -0.00000000	      0.00000000	      0.00000000	      0.00000000	      0.00000000	      0.00000000	      0.00000000	      0.00000000	      7.23169708	     40.37042999	   -387.58145142	   -300.13078403	  -1093.32446510	      0.00000000	      0.00000000	      0.00000000	   6549.09598720	     -3.72585591	    -33.65497175	   -372.46185303	   -295.44969389	   -745.68109845	      0.00000000	     -0.00000000	     -0.00000000	  -9770.27936965	      0.00000000	     -0.00000000	      0.00000000	      0.00000000	      0.00000000	      0.00000000	      0.00000000	      0.00000000	      0.00000000
      2.16000000	      0.00000000	     -0.00000000	      0.00000000	      0.00000000	      0.00000000	      0.00000000	      0.00000000	      0.00000000	      0.00000000	      6.31317663	     41.15749741	   -387.87380981	   -299.97437274	  -1094.68057024	      0.00000000	      0.00000000	      0.00000000	   6658.10968968	     -2.75495178	    -33.52052665	   -372.36053467	   -295.94570279	   -746.31517839	      0.00000000	      0.00000000	     -0.00000000	 -10131.57238656	      0.00000000	     -0.00000000	      0.00000000	      0.00000000	      0.00000000	      0.00000000	      0.00000000	      0.00000000	      0.00000000
      2.17000000	      0.00000000	     -0.00000000	      0.00000000	      0.00000000	      0.00000000	      0.00000000	      0.00000000	      0.00000000	      0.00000000	      5.19484472	     41.85672379	   -388.38986206	   -299.41868291	  -1095.53206445	      0.00000000	      0.00000000	      0.00000000	   6700.21928658	     -3.53306664	    -34.25351684	   -373.07925415	   -294.88549180	   -746.90488984	      0.00000000	     -0.00000000	     -0.00000000	 -10089.03823506	      0.00000000	     -0.00000000	      0.00000000	      0.00000000	      0.00000000	      0.00000000	      0.00000000	      0.00000000	      0.00000000
      2.18000000	      0.00000000	     -0.00000000	      0.00000000	      0.00000000	      0.00000000	      0.00000000	      0.00000000	      0.00000000	      0.00000000	      4.64605474	     41.57578278	   -384.36920166	   -299.45669051	  -1095.00916680	      0.00000000	      0.00000000	      0.00000000	   7085.98302880	     -4.52425301	    -34.11864813	   -374.20904541	   -295.44003953	   -747.41270274	      0.00000000	      0.00000000	     -0.00000000	 -10154.85487952	      0.00000000	     -0.00000000	      0.00000000	      0.00000000	      0.00000000	      0.00000000	      0.00000000	      0.00000000	      0.00000000
